<svg width="24" height="24" viewBox="0 0 24 24" fill="none" xmlns="http://www.w3.org/2000/svg">
<path d="M24 12C24 13.5759 23.6896 15.1363 23.0866 16.5922C22.4835 18.0481 21.5996 19.371 20.4853 20.4853C19.371 21.5996 18.0481 22.4835 16.5922 23.0866C15.1363 23.6896 13.5759 24 12 24C10.4241 24 8.86371 23.6896 7.4078 23.0866C5.95189 22.4835 4.62902 21.5996 3.51472 20.4853C2.40042 19.371 1.5165 18.0481 0.913447 16.5922C0.310391 15.1363 -3.32088e-08 13.5759 0 12C-3.32088e-08 10.4241 0.310391 8.86371 0.913447 7.4078C1.5165 5.95189 2.40042 4.62902 3.51472 3.51472C4.62902 2.40042 5.95189 1.5165 7.4078 0.913446C8.86371 0.310389 10.4241 0 12 0C13.5759 0 15.1363 0.310389 16.5922 0.913446C18.0481 1.5165 19.371 2.40042 20.4853 3.51472C21.5996 4.62902 22.4835 5.95189 23.0866 7.4078C23.6896 8.86371 24 10.4241 24 12Z" fill="white"/>
<path d="M2.89795 9.20557L5.35748 5.51849L2.89795 9.20557ZM3.81972 9.82045L6.27925 6.13337L3.81972 9.82045ZM4.74149 10.4353L7.20102 6.74825L4.74149 10.4353Z" fill="black"/>
<path d="M2.89795 9.20557L5.35748 5.51849M3.81972 9.82045L6.27925 6.13337M4.74149 10.4353L7.20102 6.74825" stroke="#222222" stroke-width="0.5"/>
<path d="M16.417 18.2236L18.8765 14.5366L16.417 18.2236ZM17.3388 18.8385L19.7983 15.1514L17.3388 18.8385ZM18.2605 19.4534L20.7201 15.7663L18.2605 19.4534Z" fill="black"/>
<path d="M16.417 18.2236L18.8765 14.5366M17.3388 18.8385L19.7983 15.1514M18.2605 19.4534L20.7201 15.7663" stroke="#222222" stroke-width="0.5"/>
<path d="M17.0327 15.9707L20.1053 18.0203L17.0327 15.9707Z" fill="black"/>
<path d="M17.0327 15.9707L20.1053 18.0203" stroke="black" stroke-width="0.5"/>
<path d="M15.4963 14.9458C16.8546 12.9095 16.305 10.1576 14.2687 8.79924C12.2324 7.44088 9.48049 7.99048 8.12213 10.0268C6.76377 12.0631 7.31336 14.815 9.34967 16.1734C11.386 17.5318 14.1379 16.9822 15.4963 14.9458Z" fill="#E74C3C"/>
<path d="M8.12213 10.0268C7.79597 10.5157 7.67741 11.1142 7.79251 11.6906C7.90762 12.2669 8.24696 12.7739 8.7359 13.1001C9.22484 13.4262 9.82331 13.5448 10.3997 13.4297C10.976 13.3146 11.483 12.9753 11.8092 12.4863C12.1354 11.9974 12.6424 11.658 13.2187 11.5429C13.7951 11.4278 14.3936 11.5464 14.8825 11.8725C15.3714 12.1987 15.7108 12.7057 15.8259 13.2821C15.941 13.8584 15.8224 14.4569 15.4963 14.9458C14.844 15.9237 13.8299 16.6024 12.6772 16.8326C11.5245 17.0628 10.3275 16.8257 9.34967 16.1734C8.3718 15.5211 7.69311 14.507 7.4629 13.3543C7.23269 12.2016 7.46982 11.0047 8.12213 10.0268Z" fill="#356BA0"/>
<path d="M5.35791 19.4541L2.89838 15.767L5.35791 19.4541ZM6.27968 18.8392L3.82015 15.1521L6.27968 18.8392ZM7.20145 18.2243L4.74192 14.5373L7.20145 18.2243Z" fill="black"/>
<path d="M5.35791 19.4541L2.89838 15.767M6.27968 18.8392L3.82015 15.1521M7.20145 18.2243L4.74192 14.5373" stroke="#222222" stroke-width="0.5"/>
<path d="M18.877 10.436L16.4174 6.74896L18.877 10.436ZM19.7987 9.82115L17.3392 6.13408L19.7987 9.82115ZM20.7205 9.20627L18.261 5.51919L20.7205 9.20627Z" fill="black"/>
<path d="M18.877 10.436L16.4174 6.74896M19.7987 9.82115L17.3392 6.13408M20.7205 9.20627L18.261 5.51919" stroke="#222222" stroke-width="0.5"/>
<path d="M4.58887 17.3032L5.51064 16.6883L4.58887 17.3032ZM17.0327 9.00232L18.1081 8.28495L17.0327 9.00232ZM19.0299 7.67007L19.9517 7.05519L19.0299 7.67007Z" fill="black"/>
<path d="M4.58887 17.3032L5.51064 16.6883M17.0327 9.00232L18.1081 8.28495M19.0299 7.67007L19.9517 7.05519" stroke="white" stroke-width="0.5"/>
</svg>